<svg width="343" height="118" viewBox="0 0 343 118" fill="none" xmlns="http://www.w3.org/2000/svg">
<path fill-rule="evenodd" clip-rule="evenodd" d="M109 1.5C111.3 2.5 113.3 3.9 115 5.6C116.7 7.3 118 9.3 119.1 11.6C120.1 13.9 120.6 16.4 120.6 19V113.8C120.6 114.7 120.3 115.4 119.7 116C119.1 116.6 118.4 116.9 117.5 116.9H94.8C93.9 116.9 93.2 116.6 92.7 116C92.2 115.4 91.9 114.7 91.9 113.8V27.6H73.6V113.8C73.6 114.7 73.3 115.4 72.8 116C72.3 116.6 71.5 116.9 70.7 116.9H50.1C49.2 116.9 48.5 116.6 47.9 116C47.3 115.4 47 114.7 47 113.8V27.6H28.7V113.8C28.7 115.9 27.7 116.9 25.6 116.9H3.1C1 116.9 0 115.9 0 113.8V3.1C0 1 1 0 3.1 0H101.5C104.2 0 106.6 0.5 109 1.5ZM219.5 88.5C220.4 88.5 221.2 88.8 221.7 89.4C222.3 90 222.6 90.8 222.6 91.7V113.8C222.6 114.7 222.3 115.4 221.7 116.1C221.1 116.7 220.4 117 219.5 117H141.8C139.6 117 138.5 115.9 138.5 113.8V3.2C138.5 1.1 139.6 0 141.8 0H165.6C167.8 0 168.9 1.1 168.9 3.2V85.6C168.9 86.5 169.2 87.2 169.9 87.8C170.5 88.4 171.3 88.6 172.2 88.6H219.5V88.5ZM338.9 0C339.8 0 340.6 0.3 341.2 0.9C341.8 1.5 342.2 2.3 342.2 3.2V114.1C342.2 115 341.9 115.7 341.2 116.4C340.6 117 339.8 117.3 338.9 117.3H314.7C313.8 117.3 313 117 312.4 116.4C311.8 115.8 311.4 115 311.4 114.1V75.4C311.4 74.5 311.1 73.8 310.5 73.2C309.9 72.6 309.2 72.4 308.2 72.4H274.3C273.4 72.4 272.6 72.7 272 73.2C271.4 73.8 271 74.5 271 75.4V114.1C271 116.2 269.9 117.3 267.7 117.3H243.7C241.5 117.3 240.4 116.2 240.4 114.1V3.2C240.4 1.1 241.5 0 243.7 0H267.7C269.9 0 271 1.1 271 3.2V40.7C271 42.8 272.1 43.9 274.3 43.9H308.2C309.1 43.9 309.9 43.6 310.5 43C311.1 42.4 311.4 41.6 311.4 40.7V3.2C311.4 2.3 311.7 1.6 312.4 0.9C313 0.3 313.8 0 314.7 0L338.9 0Z" fill="#353535"/>
</svg>
